# Blender 3.6.4
# www.blender.org
mtllib LamboWheel.mtl
o Car_ModelMain
v 0.644576 0.000000 -0.142823
v 0.644576 0.000000 0.155713
v 0.455784 -0.432766 -0.142823
v 0.455784 -0.432766 0.155713
v 0.000000 -0.612024 -0.142823
v 0.000000 -0.612024 0.155713
v -0.455784 -0.432766 -0.142823
v -0.455784 -0.432766 0.155713
v -0.644576 0.000000 -0.142823
v -0.644576 0.000000 0.155713
v -0.455784 0.432766 -0.142823
v -0.455784 0.432766 0.155713
v 0.000000 0.612024 -0.142823
v 0.000000 0.612024 0.155713
v 0.455784 0.432766 -0.142823
v 0.455784 0.432766 0.155713
v 0.562937 0.000000 0.202276
v 0.398057 -0.377954 0.202276
v 0.000000 -0.534507 0.202276
v -0.398057 -0.377954 0.202276
v -0.562937 0.000000 0.202276
v -0.398057 0.377954 0.202276
v 0.000000 0.534507 0.202276
v 0.398057 0.377954 0.202276
v 0.326033 -0.354226 0.182310
v 0.494338 0.031578 0.182310
v 0.033258 -0.469373 0.182310
v -0.373066 -0.309567 0.182310
v -0.494338 -0.031578 0.182310
v -0.326033 0.354226 0.182310
v -0.033258 0.469373 0.182310
v 0.373067 0.309567 0.182310
v 0.326043 -0.354232 0.114055
v 0.494350 0.031576 0.114055
v 0.033255 -0.469384 0.114055
v -0.373073 -0.309577 0.114055
v -0.494350 -0.031576 0.114055
v -0.326043 0.354232 0.114055
v -0.033255 0.469384 0.114055
v 0.373073 0.309577 0.114055
v 0.066411 -0.129811 0.132048
v 0.143632 0.047202 0.132048
v 0.049713 -0.136378 0.132048
v -0.136715 -0.063057 0.132048
v -0.143632 -0.047202 0.132048
v -0.066411 0.129811 0.132048
v -0.049712 0.136378 0.132048
v 0.136715 0.063057 0.132048
v 0.066418 -0.129819 0.168842
v 0.143643 0.047203 0.168842
v 0.049714 -0.136388 0.168842
v -0.136724 -0.063063 0.168842
v -0.143642 -0.047203 0.168842
v -0.066417 0.129819 0.168842
v -0.049714 0.136388 0.168842
v 0.136724 0.063063 0.168842
v 0.000000 -0.496223 0.202276
v 0.369545 -0.350882 0.202276
v -0.522616 0.000000 0.202276
v -0.369545 -0.350882 0.202276
v 0.000000 0.496222 0.202276
v -0.369545 0.350882 0.202276
v 0.522616 0.000000 0.202276
v 0.369545 0.350882 0.202276
v 0.000000 -0.496223 0.093899
v 0.369545 -0.350882 0.093899
v -0.522616 0.000000 0.093899
v -0.369545 -0.350882 0.093899
v 0.000000 0.496222 0.093899
v -0.369545 0.350882 0.093899
v 0.522616 0.000000 0.093899
v 0.369545 0.350882 0.093899
v 0.000000 -0.142171 0.093900
v 0.105877 -0.100530 0.093900
v -0.149732 0.000000 0.093900
v -0.105877 -0.100530 0.093900
v 0.000000 0.142171 0.093900
v -0.105877 0.100530 0.093900
v 0.149732 0.000000 0.093900
v 0.105877 0.100530 0.093900
v 0.000000 -0.142171 0.207181
v 0.105877 -0.100530 0.207181
v -0.149732 0.000000 0.207181
v -0.105877 -0.100530 0.207181
v 0.000000 0.142171 0.207181
v -0.105877 0.100530 0.207181
v 0.149732 0.000000 0.207181
v 0.105877 0.100530 0.207181
v 0.018874 -0.488799 0.182878
v 0.350671 -0.358305 0.182878
v -0.514798 -0.017921 0.182878
v -0.377363 -0.332962 0.182878
v -0.018874 0.488799 0.182878
v -0.350671 0.358305 0.182878
v 0.514798 0.017921 0.182878
v 0.377363 0.332962 0.182878
v 0.018874 -0.488799 0.113297
v 0.350671 -0.358305 0.113297
v -0.514798 -0.017921 0.113297
v -0.377363 -0.332962 0.113297
v -0.018874 0.488799 0.113297
v -0.350671 0.358305 0.113297
v 0.514798 0.017921 0.113297
v 0.377363 0.332962 0.113297
v 0.036718 -0.127730 0.132806
v 0.069159 -0.114971 0.132806
v -0.134523 -0.034863 0.132806
v -0.121086 -0.065666 0.132806
v -0.036718 0.127730 0.132806
v -0.069159 0.114971 0.132806
v 0.134523 0.034864 0.132806
v 0.121086 0.065666 0.132806
v 0.036718 -0.127730 0.168274
v 0.069159 -0.114971 0.168274
v -0.134523 -0.034863 0.168274
v -0.121086 -0.065666 0.168274
v -0.036718 0.127730 0.168274
v -0.069159 0.114971 0.168274
v 0.134523 0.034864 0.168274
v 0.121086 0.065666 0.168274
vn 0.9166 -0.3999 -0.0000
vn 0.3660 -0.9306 -0.0000
vn -0.3660 -0.9306 -0.0000
vn -0.9166 -0.3999 -0.0000
vn -0.9166 0.3999 -0.0000
vn -0.0000 -0.5149 0.8572
vn -0.3459 -0.3687 0.8628
vn -0.3532 -0.3612 0.8630
vn -0.3660 0.9306 -0.0000
vn 0.3660 0.9306 -0.0000
vn -0.0000 -0.0000 -1.0000
vn -0.4954 -0.0000 0.8687
vn -0.3459 0.3687 0.8628
vn -0.3532 0.3612 0.8630
vn -0.0000 0.5149 0.8572
vn 0.9166 0.3999 -0.0000
vn 0.3532 -0.3612 0.8630
vn 0.3459 -0.3687 0.8628
vn 0.3459 0.3687 0.8628
vn 0.3532 0.3612 0.8630
vn 0.4954 -0.0000 0.8687
vn -0.0000 -0.0000 1.0000
vn -0.9166 -0.3999 -0.0002
vn 0.7218 -0.6921 -0.0000
vn 0.9166 0.3998 -0.0003
vn 0.0445 0.9990 -0.0000
vn 0.9988 -0.0494 -0.0000
vn -0.9988 0.0494 -0.0000
vn -0.0445 -0.9990 -0.0000
vn -0.7218 0.6921 -0.0000
vn 0.3660 -0.9306 -0.0001
vn -0.6539 -0.7565 -0.0000
vn 0.6539 0.7565 -0.0000
vn -0.3660 0.9306 -0.0003
vn -0.0162 0.0412 0.9990
vn 0.0391 0.0171 0.9991
vn 0.0162 -0.0412 0.9990
vn -0.0391 -0.0171 0.9991
vn -0.0216 0.0550 -0.9983
vn 0.0522 0.0228 -0.9984
vn 0.0216 -0.0550 -0.9983
vn -0.0522 -0.0228 -0.9984
vn 0.3660 -0.9306 -0.0003
vn -0.3660 0.9306 -0.0001
vn -0.9166 -0.3999 -0.0003
vn 0.9166 0.3999 -0.0002
vt 0.875002 0.124999
vt 0.875002 0.124999
vt 0.875002 0.124999
s 1
usemtl Car_MatMain
f 1/1/1 2/1/1 4/1/1 3/1/1
f 3/1/2 4/1/2 6/1/2 5/1/2
f 5/1/3 6/1/3 8/1/3 7/1/3
f 7/1/4 8/1/4 10/1/4 9/1/4
f 9/1/5 10/1/5 12/1/5 11/1/5
f 6/1/6 19/1/6 20/1/7 8/1/8
f 11/1/9 12/1/9 14/1/9 13/1/9
f 13/1/10 14/1/10 16/1/10 15/1/10
f 1/1/11 3/1/11 5/1/11 7/1/11 9/1/11 11/1/11 13/1/11 15/1/11
f 10/1/12 21/1/12 22/1/13 12/1/14
f 12/1/14 22/1/13 23/1/15 14/1/15
f 15/1/16 16/1/16 2/1/16 1/1/16
f 4/1/17 18/2/18 19/1/6 6/1/6
f 10/1/12 8/1/8 20/1/7 21/1/12
f 14/1/15 23/1/15 24/1/19 16/1/20
f 16/1/20 24/1/19 17/1/21 2/1/21
f 21/1/22 20/1/22 60/1/22 59/1/22
f 62/1/1 59/1/1 67/1/1 70/1/1
f 19/1/22 18/2/22 58/1/22 57/3/22
f 24/1/22 23/1/22 61/1/22 64/1/22
f 22/1/22 21/1/22 59/1/22 62/1/22
f 20/1/22 19/1/22 57/3/22 60/1/22
f 18/2/22 17/1/22 63/1/22 58/1/22
f 17/1/22 24/1/22 64/1/22 63/1/22
f 23/1/22 22/1/22 62/1/22 61/1/22
f 72/1/22 69/1/22 77/1/22 80/1/22
f 60/1/10 57/3/10 65/1/10 68/1/10
f 58/1/5 63/1/5 71/1/5 66/1/5
f 40/1/23 34/1/23 26/1/23 32/1/23
f 48/1/24 40/1/24 32/1/24 56/1/24
f 42/1/25 48/1/25 56/1/25 50/1/25
f 34/1/26 42/1/26 50/1/26 26/1/26
f 64/1/3 61/1/3 69/1/3 72/1/3
f 117/1/27 109/1/27 101/1/27 93/1/27
f 70/1/22 67/1/22 75/1/22 78/1/22
f 68/1/22 65/1/22 73/1/22 76/1/22
f 66/1/22 71/1/22 79/1/22 74/1/22
f 71/1/22 72/1/22 80/1/22 79/1/22
f 69/1/22 70/1/22 78/1/22 77/1/22
f 67/1/22 68/1/22 76/1/22 75/1/22
f 65/1/22 66/1/22 74/1/22 73/1/22
f 82/2/22 87/2/22 88/2/22 85/1/22 86/1/22 83/2/22 84/1/22 81/2/22
f 115/1/26 107/1/26 99/1/26 91/1/26
f 113/1/28 105/1/28 97/1/28 89/1/28
f 80/1/10 77/1/10 85/1/10 88/2/10
f 78/1/5 75/1/5 83/2/5 86/1/5
f 76/1/3 73/1/3 81/2/3 84/1/3
f 74/1/1 79/1/1 87/2/1 82/2/1
f 119/1/29 111/1/29 103/1/29 95/1/29
f 90/1/9 89/1/9 57/3/9 58/1/9
f 92/1/16 91/1/16 59/1/16 60/1/16
f 94/1/2 93/1/2 61/1/2 62/1/2
f 96/1/4 95/1/4 63/1/4 64/1/4
f 97/1/9 98/1/9 66/1/9 65/1/9
f 99/1/16 100/1/16 68/1/16 67/1/16
f 101/1/2 102/1/2 70/1/2 69/1/2
f 103/1/4 104/1/4 72/1/4 71/1/4
f 91/1/16 99/1/16 67/1/16 59/1/16
f 102/1/2 94/1/2 62/1/2 70/1/2
f 89/1/9 97/1/9 65/1/9 57/3/9
f 100/1/16 92/1/16 60/1/16 68/1/16
f 95/1/4 103/1/4 71/1/4 63/1/4
f 98/1/9 90/1/9 58/1/9 66/1/9
f 104/1/4 96/1/4 64/1/4 72/1/4
f 93/1/2 101/1/2 69/1/2 61/1/2
f 106/1/2 105/1/2 73/1/2 74/1/2
f 108/1/4 107/1/4 75/1/4 76/1/4
f 110/1/9 109/1/9 77/1/9 78/1/9
f 112/1/16 111/1/16 79/1/16 80/1/16
f 113/1/2 114/1/2 82/2/2 81/2/2
f 115/1/4 116/1/4 84/1/4 83/2/4
f 117/1/9 118/1/9 86/1/9 85/1/9
f 119/1/16 120/1/16 88/2/16 87/2/16
f 118/1/9 110/1/9 78/1/9 86/1/9
f 109/1/9 117/1/9 85/1/9 77/1/9
f 116/1/4 108/1/4 76/1/4 84/1/4
f 107/1/4 115/1/4 83/2/4 75/1/4
f 114/1/2 106/1/2 74/1/2 82/2/2
f 105/1/2 113/1/2 81/2/2 73/1/2
f 120/1/16 112/1/16 80/1/16 88/2/16
f 111/1/16 119/1/16 87/2/16 79/1/16
f 112/1/30 120/1/30 96/1/30 104/1/30
f 38/1/31 39/1/31 31/1/31 30/1/31
f 110/1/32 118/1/32 94/1/32 102/1/32
f 46/1/33 38/1/33 30/1/33 54/1/33
f 108/1/24 116/1/24 92/1/24 100/1/24
f 47/1/34 46/1/34 54/1/34 55/1/34
f 106/1/33 114/1/33 90/1/33 98/1/33
f 39/1/28 47/1/28 55/1/28 31/1/28
f 25/1/35 27/1/35 89/1/35 90/1/35
f 28/1/36 29/1/36 91/1/36 92/1/36
f 30/1/37 31/1/37 93/1/37 94/1/37
f 32/1/38 26/1/38 95/1/38 96/1/38
f 35/1/39 33/1/39 98/1/39 97/1/39
f 37/1/40 36/1/40 100/1/40 99/1/40
f 39/1/41 38/1/41 102/1/41 101/1/41
f 34/1/42 40/1/42 104/1/42 103/1/42
f 41/1/39 43/1/39 105/1/39 106/1/39
f 44/1/40 45/1/40 107/1/40 108/1/40
f 46/1/41 47/1/41 109/1/41 110/1/41
f 48/1/42 42/1/42 111/1/42 112/1/42
f 51/1/35 49/1/35 114/1/35 113/1/35
f 53/1/36 52/1/36 116/1/36 115/1/36
f 55/1/37 54/1/37 118/1/37 117/1/37
f 50/1/38 56/1/38 120/1/38 119/1/38
f 26/1/38 50/1/38 119/1/38 95/1/38
f 42/1/42 34/1/42 103/1/42 111/1/42
f 40/1/42 48/1/42 112/1/42 104/1/42
f 56/1/38 32/1/38 96/1/38 120/1/38
f 31/1/37 55/1/37 117/1/37 93/1/37
f 47/1/41 39/1/41 101/1/41 109/1/41
f 38/1/41 46/1/41 110/1/41 102/1/41
f 54/1/37 30/1/37 94/1/37 118/1/37
f 29/1/36 53/1/36 115/1/36 91/1/36
f 45/1/40 37/1/40 99/1/40 107/1/40
f 36/1/40 44/1/40 108/1/40 100/1/40
f 52/1/36 28/1/36 92/1/36 116/1/36
f 27/1/35 51/1/35 113/1/35 89/1/35
f 43/1/39 35/1/39 97/1/39 105/1/39
f 33/1/39 41/1/39 106/1/39 98/1/39
f 49/1/35 25/1/35 90/1/35 114/1/35
f 35/1/27 43/1/27 51/1/27 27/1/27
f 43/1/43 41/1/43 49/1/43 51/1/43
f 41/1/32 33/1/32 25/1/32 49/1/32
f 33/1/44 35/1/44 27/1/44 25/1/44
f 37/1/29 45/1/29 53/1/29 29/1/29
f 45/1/45 44/1/45 52/1/45 53/1/45
f 44/1/30 36/1/30 28/1/30 52/1/30
f 36/1/46 37/1/46 29/1/46 28/1/46
f 2/1/21 17/1/21 18/2/18 4/1/17
