# Blender v3.6.5 OBJ File: 'LamboWheel.blend'
# www.blender.org
mtllib LamboWheel.mtl
o Car_ModelMain_Car_MeshMain
v 0.644576 0.000000 -0.142823
v 0.644576 0.000000 0.155713
v 0.455784 -0.432766 -0.142823
v 0.455784 -0.432766 0.155713
v 0.000000 -0.612024 -0.142823
v 0.000000 -0.612024 0.155713
v -0.455784 -0.432766 -0.142823
v -0.455784 -0.432766 0.155713
v -0.644576 0.000000 -0.142823
v -0.644576 0.000000 0.155713
v -0.455784 0.432766 -0.142823
v -0.455784 0.432766 0.155713
v 0.000000 0.612024 -0.142823
v 0.000000 0.612024 0.155713
v 0.455784 0.432766 -0.142823
v 0.455784 0.432766 0.155713
v 0.562937 0.000000 0.202276
v 0.398057 -0.377954 0.202276
v 0.000000 -0.534507 0.202276
v -0.398057 -0.377954 0.202276
v -0.562937 0.000000 0.202276
v -0.398057 0.377954 0.202276
v 0.000000 0.534507 0.202276
v 0.398057 0.377954 0.202276
v 0.326033 -0.354226 0.182310
v 0.494338 0.031578 0.182310
v 0.033258 -0.469373 0.182310
v -0.373066 -0.309567 0.182310
v -0.494338 -0.031578 0.182310
v -0.326033 0.354226 0.182310
v -0.033258 0.469373 0.182310
v 0.373067 0.309567 0.182310
v 0.326043 -0.354232 0.114055
v 0.494350 0.031576 0.114055
v 0.033255 -0.469384 0.114055
v -0.373073 -0.309577 0.114055
v -0.494350 -0.031576 0.114055
v -0.326043 0.354232 0.114055
v -0.033255 0.469384 0.114055
v 0.373073 0.309577 0.114055
v 0.066411 -0.129811 0.132048
v 0.143632 0.047202 0.132048
v 0.049713 -0.136378 0.132048
v -0.136715 -0.063057 0.132048
v -0.143632 -0.047202 0.132048
v -0.066411 0.129811 0.132048
v -0.049712 0.136378 0.132048
v 0.136715 0.063057 0.132048
v 0.066418 -0.129819 0.168842
v 0.143643 0.047203 0.168842
v 0.049714 -0.136388 0.168842
v -0.136724 -0.063063 0.168842
v -0.143642 -0.047203 0.168842
v -0.066417 0.129819 0.168842
v -0.049714 0.136388 0.168842
v 0.136724 0.063063 0.168842
v 0.000000 -0.496223 0.202276
v 0.369545 -0.350882 0.202276
v -0.522616 0.000000 0.202276
v -0.369545 -0.350882 0.202276
v 0.000000 0.496222 0.202276
v -0.369545 0.350882 0.202276
v 0.522616 0.000000 0.202276
v 0.369545 0.350882 0.202276
v 0.000000 -0.496223 0.093899
v 0.369545 -0.350882 0.093899
v -0.522616 0.000000 0.093899
v -0.369545 -0.350882 0.093899
v 0.000000 0.496222 0.093899
v -0.369545 0.350882 0.093899
v 0.522616 0.000000 0.093899
v 0.369545 0.350882 0.093899
v 0.000000 -0.142171 0.093900
v 0.105877 -0.100530 0.093900
v -0.149732 0.000000 0.093900
v -0.105877 -0.100530 0.093900
v 0.000000 0.142171 0.093900
v -0.105877 0.100530 0.093900
v 0.149732 0.000000 0.093900
v 0.105877 0.100530 0.093900
v 0.000000 -0.142171 0.207181
v 0.105877 -0.100530 0.207181
v -0.149732 0.000000 0.207181
v -0.105877 -0.100530 0.207181
v 0.000000 0.142171 0.207181
v -0.105877 0.100530 0.207181
v 0.149732 0.000000 0.207181
v 0.105877 0.100530 0.207181
v 0.018874 -0.488799 0.182878
v 0.350671 -0.358305 0.182878
v -0.514798 -0.017921 0.182878
v -0.377363 -0.332962 0.182878
v -0.018874 0.488799 0.182878
v -0.350671 0.358305 0.182878
v 0.514798 0.017921 0.182878
v 0.377363 0.332962 0.182878
v 0.018874 -0.488799 0.113297
v 0.350671 -0.358305 0.113297
v -0.514798 -0.017921 0.113297
v -0.377363 -0.332962 0.113297
v -0.018874 0.488799 0.113297
v -0.350671 0.358305 0.113297
v 0.514798 0.017921 0.113297
v 0.377363 0.332962 0.113297
v 0.036718 -0.127730 0.132806
v 0.069159 -0.114971 0.132806
v -0.134523 -0.034863 0.132806
v -0.121086 -0.065666 0.132806
v -0.036718 0.127730 0.132806
v -0.069159 0.114971 0.132806
v 0.134523 0.034864 0.132806
v 0.121086 0.065666 0.132806
v 0.036718 -0.127730 0.168274
v 0.069159 -0.114971 0.168274
v -0.134523 -0.034863 0.168274
v -0.121086 -0.065666 0.168274
v -0.036718 0.127730 0.168274
v -0.069159 0.114971 0.168274
v 0.134523 0.034864 0.168274
v 0.121086 0.065666 0.168274
vt 0.875002 0.124999
vt 0.875002 0.124999
vt 0.875002 0.124999
vt 0.875002 0.124999
vt 0.875002 0.124999
vt 0.875002 0.124999
vt 0.875002 0.124999
vt 0.875002 0.124999
vt 0.875002 0.124999
vt 0.875002 0.124999
vt 0.875002 0.124999
vt 0.875002 0.124999
vt 0.875002 0.124999
vt 0.875002 0.124999
vt 0.875002 0.124999
vt 0.875002 0.124999
vt 0.875002 0.124999
vt 0.875002 0.124999
vt 0.875002 0.124999
vt 0.875002 0.124999
vt 0.875002 0.124999
vt 0.875002 0.124999
vt 0.875002 0.124999
vt 0.875002 0.124999
vt 0.875002 0.124999
vt 0.875002 0.124999
vt 0.875002 0.124999
vt 0.875002 0.124999
vt 0.875002 0.124999
vt 0.875002 0.124999
vt 0.875002 0.124999
vt 0.875002 0.124999
vt 0.875002 0.124999
vt 0.875002 0.124999
vt 0.875002 0.124999
vt 0.875002 0.124999
vt 0.875002 0.124999
vt 0.875002 0.124999
vt 0.875002 0.124999
vt 0.875002 0.124999
vt 0.875002 0.124999
vt 0.875002 0.124999
vt 0.875002 0.124999
vt 0.875002 0.124999
vt 0.875002 0.124999
vt 0.875002 0.124999
vt 0.875002 0.124999
vt 0.875002 0.124999
vt 0.875002 0.124999
vt 0.875002 0.124999
vt 0.875002 0.124999
vt 0.875002 0.124999
vt 0.875002 0.124999
vt 0.875002 0.124999
vt 0.875002 0.124999
vt 0.875002 0.124999
vt 0.875002 0.124999
vt 0.875002 0.124999
vt 0.875002 0.124999
vt 0.875002 0.124999
vt 0.875002 0.124999
vt 0.875002 0.124999
vt 0.875002 0.124999
vt 0.875002 0.124999
vt 0.875002 0.124999
vt 0.875002 0.124999
vt 0.875002 0.124999
vt 0.875002 0.124999
vt 0.875002 0.124999
vt 0.875002 0.124999
vt 0.875002 0.124999
vt 0.875002 0.124999
vt 0.875002 0.124999
vt 0.875002 0.124999
vt 0.875002 0.124999
vt 0.875002 0.124999
vt 0.875002 0.124999
vt 0.875002 0.124999
vt 0.875002 0.124999
vt 0.875002 0.124999
vt 0.875002 0.124999
vt 0.875002 0.124999
vt 0.875002 0.124999
vt 0.875002 0.124999
vt 0.875002 0.124999
vt 0.875002 0.124999
vt 0.875002 0.124999
vt 0.875002 0.124999
vt 0.875002 0.124999
vt 0.875002 0.124999
vt 0.875002 0.124999
vt 0.875002 0.124999
vt 0.875002 0.124999
vt 0.875002 0.124999
vt 0.875002 0.124999
vt 0.875002 0.124999
vt 0.875002 0.124999
vt 0.875002 0.124999
vt 0.875002 0.124999
vt 0.875002 0.124999
vt 0.875002 0.124999
vt 0.875002 0.124999
vt 0.875002 0.124999
vt 0.875002 0.124999
vt 0.875002 0.124999
vt 0.875002 0.124999
vt 0.875002 0.124999
vt 0.875002 0.124999
vt 0.875002 0.124999
vt 0.875002 0.124999
vt 0.875002 0.124999
vt 0.875002 0.124999
vt 0.875002 0.124999
vt 0.875002 0.124999
vt 0.875002 0.124999
vt 0.875002 0.124999
vt 0.875002 0.124999
vt 0.875002 0.124999
vt 0.875002 0.124999
vt 0.875002 0.124999
vn 0.9166 -0.3999 -0.0000
vn 0.3660 -0.9306 -0.0000
vn -0.3660 -0.9306 -0.0000
vn -0.9166 -0.3999 -0.0000
vn -0.9166 0.3999 0.0000
vn 0.0000 -0.5149 0.8572
vn -0.3459 -0.3687 0.8628
vn -0.3532 -0.3612 0.8630
vn -0.3660 0.9306 0.0000
vn 0.3660 0.9306 0.0000
vn 0.0000 0.0000 -1.0000
vn -0.4954 0.0000 0.8687
vn -0.3459 0.3687 0.8628
vn -0.3532 0.3612 0.8630
vn 0.0000 0.5149 0.8572
vn 0.9166 0.3999 0.0000
vn 0.3532 -0.3612 0.8630
vn 0.3459 -0.3687 0.8628
vn 0.3459 0.3687 0.8628
vn 0.3532 0.3612 0.8630
vn 0.4954 0.0000 0.8687
vn 0.0000 0.0000 1.0000
vn -0.9166 -0.3999 -0.0002
vn 0.7218 -0.6921 -0.0000
vn 0.9166 0.3998 -0.0003
vn 0.0445 0.9990 -0.0000
vn 0.9988 -0.0494 0.0000
vn -0.9988 0.0494 0.0000
vn -0.0445 -0.9990 0.0000
vn -0.7218 0.6921 0.0000
vn 0.3660 -0.9306 -0.0001
vn -0.6539 -0.7565 0.0000
vn 0.6539 0.7565 -0.0000
vn -0.3660 0.9306 -0.0003
vn -0.0162 0.0412 0.9990
vn 0.0391 0.0171 0.9991
vn 0.0162 -0.0412 0.9990
vn -0.0391 -0.0171 0.9991
vn -0.0216 0.0550 -0.9983
vn 0.0522 0.0228 -0.9984
vn 0.0216 -0.0550 -0.9983
vn -0.0522 -0.0228 -0.9984
vn 0.3660 -0.9306 -0.0003
vn -0.3660 0.9306 -0.0001
vn -0.9166 -0.3999 -0.0003
vn 0.9166 0.3999 -0.0002
usemtl Car_MatMain
s 1
f 1/1/1 2/2/1 4/3/1 3/4/1
f 3/4/2 4/3/2 6/5/2 5/6/2
f 5/6/3 6/5/3 8/7/3 7/8/3
f 7/8/4 8/7/4 10/9/4 9/10/4
f 9/10/5 10/9/5 12/11/5 11/12/5
f 6/5/6 19/13/6 20/14/7 8/7/8
f 11/12/9 12/11/9 14/15/9 13/16/9
f 13/16/10 14/15/10 16/17/10 15/18/10
f 1/1/11 3/4/11 5/6/11 7/8/11 9/10/11 11/12/11 13/16/11 15/18/11
f 10/9/12 21/19/12 22/20/13 12/11/14
f 12/11/14 22/20/13 23/21/15 14/15/15
f 15/18/16 16/17/16 2/2/16 1/1/16
f 4/3/17 18/22/18 19/13/6 6/5/6
f 10/9/12 8/7/8 20/14/7 21/19/12
f 14/15/15 23/21/15 24/23/19 16/17/20
f 16/17/20 24/23/19 17/24/21 2/2/21
f 21/19/22 20/14/22 60/25/22 59/26/22
f 62/27/1 59/26/1 67/28/1 70/29/1
f 19/13/22 18/22/22 58/30/22 57/31/22
f 24/23/22 23/21/22 61/32/22 64/33/22
f 22/20/22 21/19/22 59/26/22 62/27/22
f 20/14/22 19/13/22 57/31/22 60/25/22
f 18/22/22 17/24/22 63/34/22 58/30/22
f 17/24/22 24/23/22 64/33/22 63/34/22
f 23/21/22 22/20/22 62/27/22 61/32/22
f 72/35/22 69/36/22 77/37/22 80/38/22
f 60/25/10 57/31/10 65/39/10 68/40/10
f 58/30/5 63/34/5 71/41/5 66/42/5
f 40/43/23 34/44/23 26/45/23 32/46/23
f 48/47/24 40/43/24 32/46/24 56/48/24
f 42/49/25 48/47/25 56/48/25 50/50/25
f 34/44/26 42/49/26 50/50/26 26/45/26
f 64/33/3 61/32/3 69/36/3 72/35/3
f 117/51/27 109/52/27 101/53/27 93/54/27
f 70/29/22 67/28/22 75/55/22 78/56/22
f 68/40/22 65/39/22 73/57/22 76/58/22
f 66/42/22 71/41/22 79/59/22 74/60/22
f 71/41/22 72/35/22 80/38/22 79/59/22
f 69/36/22 70/29/22 78/56/22 77/37/22
f 67/28/22 68/40/22 76/58/22 75/55/22
f 65/39/22 66/42/22 74/60/22 73/57/22
f 82/61/22 87/62/22 88/63/22 85/64/22 86/65/22 83/66/22 84/67/22 81/68/22
f 115/69/26 107/70/26 99/71/26 91/72/26
f 113/73/28 105/74/28 97/75/28 89/76/28
f 80/38/10 77/37/10 85/64/10 88/63/10
f 78/56/5 75/55/5 83/66/5 86/65/5
f 76/58/3 73/57/3 81/68/3 84/67/3
f 74/60/1 79/59/1 87/62/1 82/61/1
f 119/77/29 111/78/29 103/79/29 95/80/29
f 90/81/9 89/76/9 57/31/9 58/30/9
f 92/82/16 91/72/16 59/26/16 60/25/16
f 94/83/2 93/54/2 61/32/2 62/27/2
f 96/84/4 95/80/4 63/34/4 64/33/4
f 97/75/9 98/85/9 66/42/9 65/39/9
f 99/71/16 100/86/16 68/40/16 67/28/16
f 101/53/2 102/87/2 70/29/2 69/36/2
f 103/79/4 104/88/4 72/35/4 71/41/4
f 91/72/16 99/71/16 67/28/16 59/26/16
f 102/87/2 94/83/2 62/27/2 70/29/2
f 89/76/9 97/75/9 65/39/9 57/31/9
f 100/86/16 92/82/16 60/25/16 68/40/16
f 95/80/4 103/79/4 71/41/4 63/34/4
f 98/85/9 90/81/9 58/30/9 66/42/9
f 104/88/4 96/84/4 64/33/4 72/35/4
f 93/54/2 101/53/2 69/36/2 61/32/2
f 106/89/2 105/74/2 73/57/2 74/60/2
f 108/90/4 107/70/4 75/55/4 76/58/4
f 110/91/9 109/52/9 77/37/9 78/56/9
f 112/92/16 111/78/16 79/59/16 80/38/16
f 113/73/2 114/93/2 82/61/2 81/68/2
f 115/69/4 116/94/4 84/67/4 83/66/4
f 117/51/9 118/95/9 86/65/9 85/64/9
f 119/77/16 120/96/16 88/63/16 87/62/16
f 118/95/9 110/91/9 78/56/9 86/65/9
f 109/52/9 117/51/9 85/64/9 77/37/9
f 116/94/4 108/90/4 76/58/4 84/67/4
f 107/70/4 115/69/4 83/66/4 75/55/4
f 114/93/2 106/89/2 74/60/2 82/61/2
f 105/74/2 113/73/2 81/68/2 73/57/2
f 120/96/16 112/92/16 80/38/16 88/63/16
f 111/78/16 119/77/16 87/62/16 79/59/16
f 112/92/30 120/96/30 96/84/30 104/88/30
f 38/97/31 39/98/31 31/99/31 30/100/31
f 110/91/32 118/95/32 94/83/32 102/87/32
f 46/101/33 38/97/33 30/100/33 54/102/33
f 108/90/24 116/94/24 92/82/24 100/86/24
f 47/103/34 46/101/34 54/102/34 55/104/34
f 106/89/33 114/93/33 90/81/33 98/85/33
f 39/98/28 47/103/28 55/104/28 31/99/28
f 25/105/35 27/106/35 89/76/35 90/81/35
f 28/107/36 29/108/36 91/72/36 92/82/36
f 30/100/37 31/99/37 93/54/37 94/83/37
f 32/46/38 26/45/38 95/80/38 96/84/38
f 35/109/39 33/110/39 98/85/39 97/75/39
f 37/111/40 36/112/40 100/86/40 99/71/40
f 39/98/41 38/97/41 102/87/41 101/53/41
f 34/44/42 40/43/42 104/88/42 103/79/42
f 41/113/39 43/114/39 105/74/39 106/89/39
f 44/115/40 45/116/40 107/70/40 108/90/40
f 46/101/41 47/103/41 109/52/41 110/91/41
f 48/47/42 42/49/42 111/78/42 112/92/42
f 51/117/35 49/118/35 114/93/35 113/73/35
f 53/119/36 52/120/36 116/94/36 115/69/36
f 55/104/37 54/102/37 118/95/37 117/51/37
f 50/50/38 56/48/38 120/96/38 119/77/38
f 26/45/38 50/50/38 119/77/38 95/80/38
f 42/49/42 34/44/42 103/79/42 111/78/42
f 40/43/42 48/47/42 112/92/42 104/88/42
f 56/48/38 32/46/38 96/84/38 120/96/38
f 31/99/37 55/104/37 117/51/37 93/54/37
f 47/103/41 39/98/41 101/53/41 109/52/41
f 38/97/41 46/101/41 110/91/41 102/87/41
f 54/102/37 30/100/37 94/83/37 118/95/37
f 29/108/36 53/119/36 115/69/36 91/72/36
f 45/116/40 37/111/40 99/71/40 107/70/40
f 36/112/40 44/115/40 108/90/40 100/86/40
f 52/120/36 28/107/36 92/82/36 116/94/36
f 27/106/35 51/117/35 113/73/35 89/76/35
f 43/114/39 35/109/39 97/75/39 105/74/39
f 33/110/39 41/113/39 106/89/39 98/85/39
f 49/118/35 25/105/35 90/81/35 114/93/35
f 35/109/27 43/114/27 51/117/27 27/106/27
f 43/114/43 41/113/43 49/118/43 51/117/43
f 41/113/32 33/110/32 25/105/32 49/118/32
f 33/110/44 35/109/44 27/106/44 25/105/44
f 37/111/29 45/116/29 53/119/29 29/108/29
f 45/116/45 44/115/45 52/120/45 53/119/45
f 44/115/30 36/112/30 28/107/30 52/120/30
f 36/112/46 37/111/46 29/108/46 28/107/46
f 2/2/21 17/24/21 18/22/18 4/3/17
